<svg id="图层_1" data-name="图层 1" xmlns="http://www.w3.org/2000/svg" viewBox="0 0 240 240"><defs><style>.cls-1{fill:#e5e5e5;}.cls-2{fill:#b2b2b2;}</style></defs><rect class="cls-1" x="0.15" width="240" height="240"/><rect class="cls-2" x="104.21" y="99.35" width="2.43" height="2.43"/><path class="cls-2" d="M152.8,137h-2.43V152.8h-2.43V126.07h2.43v3.65h2.43v-4.86a1.22,1.22,0,0,0-1.22-1.22h-4.86a1.22,1.22,0,0,0-1.21,1.22v3.64h-6.07v-3.64a1.22,1.22,0,0,0-1.22-1.22h-4.86a1.22,1.22,0,0,0-1.21,1.22v3.64h-6.08v-3.64a1.22,1.22,0,0,0-1.21-1.22H120a1.22,1.22,0,0,0-1.21,1.22v13.36h2.42V126.07h2.43V152.8h-2.43V140.61h-2.42V152.8h-3.65v-3.65a1.21,1.21,0,0,0-1.21-1.21h-3.65v-41.3h1.22a1.22,1.22,0,0,0,1.21-1.22h21.87v1.93L128,113.93h-3.14a1.22,1.22,0,0,0-1.22,1.21V120a1.22,1.22,0,0,0,1.22,1.21h21.86a1.21,1.21,0,0,0,1.22-1.21v-4.86a1.21,1.21,0,0,0-1.22-1.21h-3.14L137,107.35v-1.93h13.36a1,1,0,0,0,.34,0h0s0,0,.06,0a1.51,1.51,0,0,0,.26-.12l.09-.08a.85.85,0,0,0,.17-.16,1,1,0,0,0,.08-.11l.06-.08a.49.49,0,0,0,0-.11.78.78,0,0,0,.05-.14.93.93,0,0,0,0-.24s0,0,0-.08v-7.3s0,0,0-.08a1.84,1.84,0,0,0,0-.25.9.9,0,0,0-.08-.21,2,2,0,0,0-.12-.19,1.29,1.29,0,0,0-.16-.17.71.71,0,0,0-.18-.12,1.13,1.13,0,0,0-.22-.11l-.08,0-41.3-10.93h-.14l-.17,0h-7.29l-.11,0-.18,0-.12,0-.15.08-.1,0-17,10.93,0,0L84,96a.81.81,0,0,0-.16.16s0,0-.06.07a.21.21,0,0,0,0,.06l0,.07s0,.07,0,.11,0,.09,0,.13,0,0,0,.07v0s0,.11,0,.16,0,.06,0,.09v7.28a1.21,1.21,0,0,0,1.21,1.22H86v3.64a1.22,1.22,0,0,0,1.21,1.22h4.86a1.22,1.22,0,0,0,1.22-1.22v-3.65h4.85a1.22,1.22,0,0,0,1.22,1.22h1.21v41.3H96.92a1.21,1.21,0,0,0-1.21,1.21v3.65H83.56v2.43h72.88V152.8H152.8Zm-7.29-18.22H126.07v-2.43h19.44Zm-14.07-4.86,4.35-4.36,4.36,4.36Zm-24.56-3.65L103,112.87v-5.18Zm1,26.89L104,134.58l3.88-2.59Zm0-9.72L104,124.86l3.88-2.59Zm0-14.9v5.18L104,115.14ZM103,117.41l3.89,2.59L103,122.59Zm0,9.72,3.89,2.59L103,132.31Zm0,14.9v-5.18l3.89,2.59Zm4.86-.32v5.17L104,144.29Zm0-33.7-2.06-1.37h2.06Zm1.22-3.8h-8.51V96.92h9.72v7.29Zm-17-1.22H91.9l2.59-3.88L97.08,103ZM86,103v-2.06L87.36,103Zm47.21,0,2.59-3.88,2.59,3.88ZM102.65,88.83l5,5.66h-5.67Zm10.06,9.3h1.38l-1.38,2.07Zm3.65,1L119,103h-5.18Zm2.26-1h5.18L121.21,102Zm7.45,1,2.59,3.88h-5.18Zm2.27-1h5.18L130.93,102Zm9.72,0h5.18L140.65,102Zm7.45,1L148.1,103h-5.18Zm2.27-1h1.37v2.07Zm-12-2.42H112.71a1.21,1.21,0,0,0-1.21-1.22h-.15l-.85-6.87L141,95.71Zm-27.21-3.79-4.13-4.72H108Zm-9.09,2.57h-.14a1.22,1.22,0,0,0-1.22,1.22H88.91l11.34-7.29ZM87,98.13h5.18L89.63,102Zm9.72,0h1.37v2.07Zm-5.91,9.72H88.42v-2.43h2.43ZM103,146.56l2.07,1.38H103Zm-4.86,6.24v-2.43h14.58v2.43Zm27.94-4.86v-2.43h19.44v2.43Zm0-12.15h6.08v7.29h-6.08Zm19.44,0v7.29h-6.07v-7.29Zm-8.5,7.29h-2.43v-7.29H137Zm8.5,7.29v2.43h-6.07v-2.43Zm-10.93-24.3H137v2.43h-2.43Zm-1.22,4.86h12.15v2.43H126.07v-2.43Zm-7.29,19.44h6.08v2.43h-6.08Zm8.51,2.43v-2.43H137v2.43Z"/><rect class="cls-2" x="150.37" y="132.15" width="2.43" height="2.43"/></svg>