<?xml version="1.0" encoding="UTF-8"?>
<svg width="103px" height="30px" viewBox="0 0 103 30" version="1.1" xmlns="http://www.w3.org/2000/svg" xmlns:xlink="http://www.w3.org/1999/xlink">
    <title>logo_gradient copy 4</title>
    <defs>
        <linearGradient x1="36.3020605%" y1="34.8498016%" x2="5.54682722%" y2="34.8498016%" id="linearGradient-1">
            <stop stop-color="#008BD0" offset="0%"></stop>
            <stop stop-color="#2CD4C3" offset="100%"></stop>
        </linearGradient>
        <path d="M33.9316924,9.66106535e-14 C39.4024488,9.66106535e-14 43.8370996,4.47725 43.8370996,10 C43.8370996,15.523 39.4024488,20 33.9316924,20 C31.5890033,20 29.4363076,19.1790406 27.7404723,17.8065373 L27.740813,28.125 C27.740813,29.16075 26.9095017,30 25.8835491,30 C24.9064515,30 24.1058992,29.2387755 24.0318717,28.2715581 L24.0262853,28.125 L24.0262853,10 L24.0300906,9.72009995 C24.1769101,4.32676501 28.5536607,9.66106535e-14 33.9316924,9.66106535e-14 Z M80.1033819,9.66106535e-14 C85.442476,9.66106535e-14 89.8048538,4.23169775 90.093803,9.56144506 L90.0958546,9.624975 C90.0958546,10.6111978 89.3434089,11.4195812 88.387758,11.4943338 L88.242955,11.499975 L73.9503525,11.4996265 C74.5715114,14.3597027 77.0904461,16.5 80.1033819,16.5 C82.0104054,16.5 83.7195223,15.6425547 84.8747769,14.2878655 C85.2145539,13.8118528 85.7663124,13.499975 86.3900553,13.499975 C87.4133835,13.499975 88.242955,14.3394411 88.242955,15.374975 C88.242955,15.8424825 88.073871,16.2700273 87.7942096,16.5984052 L87.7960848,16.5998025 C85.9607145,18.8302849 83.1958901,20.25 80.1033819,20.25 C74.5774095,20.25 70.0977238,15.7168831 70.0977238,10.125 C70.0977238,4.53311691 74.5774095,9.66106535e-14 80.1033819,9.66106535e-14 Z M57.0676627,9.66106535e-14 C62.4067567,9.66106535e-14 66.7691346,4.23169775 67.0580838,9.56144506 L67.0601354,9.624975 C67.0601354,10.6111978 66.3076896,11.4195812 65.3520387,11.4943338 L65.2072357,11.499975 L50.9146333,11.4996265 C51.5357921,14.3597027 54.0547269,16.5 57.0676627,16.5 C58.9746861,16.5 60.683803,15.6425547 61.8390577,14.2878655 C62.1788346,13.8118528 62.7305932,13.499975 63.3543361,13.499975 C64.3776643,13.499975 65.2072357,14.3394411 65.2072357,15.374975 C65.2072357,15.8424825 65.0381518,16.2700273 64.7584903,16.5984052 L64.7603655,16.5998025 C62.9249952,18.8302849 60.1601709,20.25 57.0676627,20.25 C51.5416903,20.25 47.0620045,15.7168831 47.0620045,10.125 C47.0620045,4.53311691 51.5416903,9.66106535e-14 57.0676627,9.66106535e-14 Z M9.90540714,9.66106535e-14 C15.2834388,9.66106535e-14 19.6601895,4.32676501 19.8070089,9.72009995 L19.8108143,10 L19.8108143,18.125 C19.8108143,19.1605 18.979503,20 17.9535504,20 C16.9275979,20 16.0962866,19.1605 16.0962866,18.125 L16.0966272,17.8065373 C14.400792,19.1790406 12.2480963,20 9.90540714,20 C4.57974156,20 0.235952897,15.7573214 0.00929422649,10.4371578 C0.00308713197,10.3752851 0,10.3128829 0,10.24975 L0.000247635178,10.24 L0.001,10.137 L-2.84217094e-14,10 C-2.84217094e-14,4.57085593 4.28559759,0.152071531 9.62814257,0.00384188013 L9.90540714,9.66106535e-14 Z M96.8603344,8.125 L96.8603344,18.125 L96.8479707,18.125 C96.8479707,19.16075 96.0166594,20 94.9907069,20 C93.9647543,20 93.133443,19.16075 93.133443,18.125 C93.133443,18.0554705 93.1371893,17.9868265 93.1444891,17.9192624 L93.1458067,8.125 L96.8603344,8.125 Z M9.90540714,4 C6.52760169,3.99975302 3.78181501,6.73057361 3.71574558,10.1252085 C3.78186057,13.519468 6.52753738,16.25 9.90540714,16.25 C13.2487682,16.25 15.9727874,13.5749738 16.0922039,10.2291409 L16.094,10.125 L16.0922043,10.0208424 C15.9727982,6.67476543 13.2490103,3.99951111 9.90540714,4 Z M33.9316924,3.75 C30.5123459,3.75 27.740813,6.548 27.740813,10 C27.740813,13.452 30.5123459,16.25 33.9316924,16.25 C37.351039,16.25 40.1225719,13.452 40.1225719,10 C40.1225719,6.548 37.351039,3.75 33.9316924,3.75 Z M100.913915,9.66106535e-14 C101.939894,9.66106535e-14 102.771226,0.83925 102.771226,1.875 C102.771226,2.91075 101.939894,3.75 100.913915,3.75 C100.913578,3.75 100.913241,3.74999991 100.912904,3.74999973 L100.912925,3.75407107 C98.6540331,3.86363459 96.8575472,5.74502335 96.8575472,8.05 L96.8589245,8.12407107 L93.1430164,8.12426057 L93.1429245,8.08511105 C93.1429245,3.76955782 96.4919822,0.243668572 100.70946,0.0117055021 C100.776488,0.00381301213 100.84476,9.66106535e-14 100.913915,9.66106535e-14 Z M80.1033819,3.75 C77.4539222,3.75 75.186462,5.40504182 74.2555536,7.74918767 L85.9512102,7.74918767 C85.0203019,5.40504182 82.7528416,3.75 80.1033819,3.75 Z M57.0676627,3.75 C54.418203,3.75 52.1507428,5.40504182 51.2198344,7.74918767 L62.915491,7.74918767 C61.9845826,5.40504182 59.7171224,3.75 57.0676627,3.75 Z" id="path-2"></path>
    </defs>
    <g id="Library-" stroke="none" stroke-width="1" fill="none" fill-rule="evenodd">
        <g id="Logo-design-" transform="translate(-153.000000, -178.000000)">
            <g id="logo_onwhite" transform="translate(153.000000, 178.000000)">
                <g id="logo-gradient-copy">
                    <mask id="mask-3" fill="white">
                        <use xlink:href="#path-2"></use>
                    </mask>
                    <use id="Combined-Shape-Copy-19" fill="url(#linearGradient-1)" fill-rule="nonzero" xlink:href="#path-2"></use>
                </g>
            </g>
        </g>
    </g>
</svg>